FFmpeg version SVN-r25716, Copyright (c) 2000-2010 the FFmpeg developers  built on Nov 10 2010 12:23:18 with gcc 4.1.2 20080704 (Red Hat 4.1.2-48)  configuration: --enable-libmp3lame --enable-shared --disable-mmx --arch=x86_64  libavutil     50.33. 0 / 50.33. 0  libavcore      0.12. 1 /  0.12. 1  libavcodec    52.94. 4 / 52.94. 4  libavformat   52.84. 0 / 52.84. 0  libavdevice   52. 2. 2 / 52. 2. 2  libavfilter    1.59. 0 /  1.59. 0  libswscale     0.12. 0 /  0.12. 0Input #0, avi, from '/RAID10/data/converted_video_files/47368.avi':  Duration: 00:00:07.40, start: 0.000000, bitrate: 188409 kb/s    Stream #0.0: Video: msvideo1, rgb555le, 1024x1024, 20 tbr, 20 tbn, 20 tbc[buffer @ 0x1d54b380] w:1024 h:1024 pixfmt:rgb555le[ffsink @ 0x1d54a700] auto-inserting filter 'auto-inserted scaler 0' between the filter 'src' and the filter 'out'[scale @ 0x1d54a9f0] w:1024 h:1024 fmt:rgb555le -> w:1024 h:1024 fmt:yuv420p flags:0x4Output #0, flv, to '/RAID10/data/converted_video_files/47368.flv':  Metadata:    encoder         : Lavf52.84.0    Stream #0.0: Video: flv, yuv420p, 1024x1024, q=2-31, 600 kb/s, 1k tbn, 24 tbcStream mapping:  Stream #0.0 -> #0.0Press [q] to stop encodingframe=    7 fps=  0 q=9.5 size=     547kB time=0.33 bitrate=13408.3kbits/s    frame=   16 fps= 14 q=31.0 size=     589kB time=0.79 bitrate=6087.6kbits/s    frame=   24 fps= 14 q=31.0 size=     594kB time=1.17 bitrate=4170.3kbits/s    frame=   34 fps= 16 q=31.0 size=     628kB time=1.71 bitrate=3010.9kbits/s    frame=   41 fps= 15 q=31.0 size=     660kB time=2.04 bitrate=2649.9kbits/s    frame=   50 fps= 16 q=31.0 size=     693kB time=2.50 bitrate=2270.2kbits/s    frame=   59 fps= 16 q=31.0 size=     698kB time=2.96 bitrate=1933.9kbits/s    frame=   67 fps= 16 q=31.0 size=     730kB time=3.33 bitrate=1794.3kbits/s    frame=   74 fps= 16 q=31.0 size=     761kB time=3.71 bitrate=1681.6kbits/s    frame=   82 fps= 16 q=31.0 size=     773kB time=4.08 bitrate=1549.7kbits/s    frame=   89 fps= 15 q=31.0 size=     804kB time=4.46 bitrate=1477.8kbits/s    frame=   92 fps= 15 q=31.0 size=     810kB time=4.58 bitrate=1447.2kbits/s    frame=  102 fps= 15 q=31.0 size=     844kB time=5.08 bitrate=1360.5kbits/s    frame=  111 fps= 15 q=31.0 size=     878kB time=5.54 bitrate=1297.2kbits/s    frame=  121 fps= 15 q=24.8 size=     913kB time=6.04 bitrate=1238.0kbits/s    frame=  131 fps= 16 q=31.0 size=     924kB time=6.54 bitrate=1157.0kbits/s    frame=  140 fps= 16 q=31.0 size=     966kB time=7.00 bitrate=1131.0kbits/s    frame=  146 fps= 15 q=31.0 size=    1004kB time=7.29 bitrate=1127.8kbits/s    frame=  148 fps= 15 q=31.0 Lsize=    1010kB time=7.38 bitrate=1122.2kbits/s    video:1008kB audio:0kB global headers:0kB muxing overhead 0.249828%